<svg xmlns="http://www.w3.org/2000/svg" xmlns:xlink="http://www.w3.org/1999/xlink" width="928" height="326" contentScriptType="application/ecmascript" contentStyleType="text/css" preserveAspectRatio="none" style="width:928px;height:326px;background:#fff" version="1.1" viewBox="0 0 928 326" zoomAndPan="magnify"><defs><filter id="fxhl74geptdz6" width="300%" height="300%" x="-1" y="-1"><feGaussianBlur result="blurOut" stdDeviation="2"/><feColorMatrix in="blurOut" result="blurOut2" type="matrix" values="0 0 0 0 0 0 0 0 0 0 0 0 0 0 0 0 0 0 .4 0"/><feOffset dx="4" dy="4" in="blurOut2" result="blurOut3"/><feBlend in="SourceGraphic" in2="blurOut3" mode="normal"/></filter></defs><g><ellipse cx="47.5" cy="145.5" fill="#FFF" filter="url(#fxhl74geptdz6)" rx="8" ry="8" style="stroke:#053742;stroke-width:1.5"/><path fill="none" d="M47.5,153.5 L47.5,180.5 M34.5,161.5 L60.5,161.5 M47.5,180.5 L34.5,195.5 M47.5,180.5 L60.5,195.5" filter="url(#fxhl74geptdz6)" style="stroke:#053742;stroke-width:1.5"/><text x="6" y="215.533" fill="#053742" font-family="sans-serif" font-size="14" lengthAdjust="spacing" textLength="83">Sinh viên UIT</text><ellipse cx="313.397" cy="28.68" fill="#A2DBFA" filter="url(#fxhl74geptdz6)" rx="101.397" ry="22.68" style="stroke:#053742;stroke-width:1.5"/><text x="231.398" y="32.408" fill="#000" font-family="sans-serif" font-size="14" lengthAdjust="spacing" textLength="164">3. Tạo script ĐKHP nhanh</text><ellipse cx="313.631" cy="124.326" fill="#A2DBFA" filter="url(#fxhl74geptdz6)" rx="92.131" ry="20.826" style="stroke:#053742;stroke-width:1.5"/><text x="242.131" y="128.055" fill="#000" font-family="sans-serif" font-size="14" lengthAdjust="spacing" textLength="143">1. Soạn thời khoá biểu</text><ellipse cx="313.27" cy="217.454" fill="#A2DBFA" filter="url(#fxhl74geptdz6)" rx="85.27" ry="19.454" style="stroke:#053742;stroke-width:1.5"/><text x="249.77" y="221.183" fill="#000" font-family="sans-serif" font-size="14" lengthAdjust="spacing" textLength="127">2. Vẽ thời khoá biểu</text><ellipse cx="313.438" cy="293.588" fill="#A2DBFA" filter="url(#fxhl74geptdz6)" rx="93.438" ry="21.088" style="stroke:#053742;stroke-width:1.5"/><text x="240.438" y="297.316" fill="#000" font-family="sans-serif" font-size="14" lengthAdjust="spacing" textLength="146">4. Xem giao diện ĐKHP</text><ellipse cx="600.392" cy="201.379" fill="#A2DBFA" filter="url(#fxhl74geptdz6)" rx="87.392" ry="19.878" style="stroke:#053742;stroke-width:1.5"/><text x="534.392" y="205.107" fill="#000" font-family="sans-serif" font-size="14" lengthAdjust="spacing" textLength="132">0. Tạo nguồn dữ liệu</text><path fill="#FFF" d="M750,180 L750,197.5 L688.22,201.5 L750,205.5 L750,222.7031 A0,0 0 0 0 750,222.7031 L919,222.7031 A0,0 0 0 0 919,222.7031 L919,190 L909,180 L750,180 A0,0 0 0 0 750,180" filter="url(#fxhl74geptdz6)" style="stroke:#053742;stroke-width:1"/><path fill="#FFF" d="M909,180 L909,190 L919,190 L909,180" style="stroke:#053742;stroke-width:1"/><text x="756" y="198.495" fill="#000" font-family="sans-serif" font-size="13" lengthAdjust="spacing" textLength="98">- Tải lên từ excel</text><text x="756" y="214.847" fill="#000" font-family="sans-serif" font-size="13" lengthAdjust="spacing" textLength="148">- Crawl từ dkhp.uit.edu.vn</text><path fill="#FFF" d="M512,105.5 L512,116.35 L405.46,122.59 L512,124.35 L512,131.8516 A0,0 0 0 0 512,131.8516 L689,131.8516 A0,0 0 0 0 689,131.8516 L689,115.5 L679,105.5 L512,105.5 A0,0 0 0 0 512,105.5" filter="url(#fxhl74geptdz6)" style="stroke:#053742;stroke-width:1"/><path fill="#FFF" d="M679,105.5 L679,115.5 L689,115.5 L679,105.5" style="stroke:#053742;stroke-width:1"/><text x="518" y="123.995" fill="#000" font-family="sans-serif" font-size="13" lengthAdjust="spacing" textLength="156">Có thể tự soạn bằng Excel</text><path id="user-to-3. Tạo script ĐKHP nhanh" fill="none" d="M89.06,153.75 C98.85,148.06 109.28,142.04 119,136.5 C170.71,107.03 230.59,73.74 269.88,52" style="stroke:#053742;stroke-width:1"/><polygon fill="#053742" points="274.57 49.41 264.758 50.26 270.193 51.827 268.625 57.263 274.57 49.41" style="stroke:#053742;stroke-width:1"/><path id="user-to-1. Soạn thời khoá biểu" fill="none" d="M89.11,168.75 C98.89,166.67 109.31,164.48 119,162.5 C158,154.52 201.5,145.95 237.35,138.97" style="stroke:#053742;stroke-width:1"/><polygon fill="#053742" points="242.59 137.95 232.991 135.744 237.682 138.906 234.521 143.597 242.59 137.95" style="stroke:#053742;stroke-width:1"/><path id="user-to-2. Vẽ thời khoá biểu" fill="none" d="M89.17,183.66 C128.39,189.6 188.69,198.74 236.76,206.02" style="stroke:#053742;stroke-width:1"/><polygon fill="#053742" points="241.96 206.81 233.669 201.493 237.018 206.053 232.458 209.401 241.96 206.81" style="stroke:#053742;stroke-width:1"/><path id="user-to-4. Xem giao diện ĐKHP" fill="none" d="M89.13,197.6 C121.99,213.63 169.61,236.32 212,254.5 C227.28,261.05 244.05,267.75 259.44,273.71" style="stroke:#053742;stroke-width:1"/><polygon fill="#053742" points="264.17 275.53 257.192 268.58 259.5 273.745 254.335 276.053 264.17 275.53" style="stroke:#053742;stroke-width:1"/><path id="1. Soạn thời khoá biểu-to-0. Tạo nguồn dữ liệu" fill="none" d="M373.55,140.45 C421.63,153.44 489.27,171.72 538,184.88" style="stroke:#053742;stroke-width:1;stroke-dasharray:7,7"/><polygon fill="#053742" points="542.95 186.22 535.299 180.018 538.122 184.92 533.22 187.743 542.95 186.22" style="stroke:#053742;stroke-width:1"/><text x="446" y="157.995" fill="#000" font-family="sans-serif" font-size="13" lengthAdjust="spacing" textLength="35">«cần»</text><path id="2. Vẽ thời khoá biểu-to-0. Tạo nguồn dữ liệu" fill="none" d="M396.81,222.18 C423.97,222.87 454.31,222.72 482,220.5 C496.8,219.31 512.56,217.29 527.56,215" style="stroke:#053742;stroke-width:1;stroke-dasharray:7,7"/><polygon fill="#053742" points="532.62 214.22 523.11 211.66 527.68 214.993 524.347 219.564 532.62 214.22" style="stroke:#053742;stroke-width:1"/><text x="446" y="216.995" fill="#000" font-family="sans-serif" font-size="13" lengthAdjust="spacing" textLength="35">«cần»</text><path id="1. Soạn thời khoá biểu-to-2. Vẽ thời khoá biểu" fill="none" d="M313.5,145.81 C313.5,159.74 313.5,177.98 313.5,192.58" style="stroke:#053742;stroke-width:1;stroke-dasharray:7,7"/><polygon fill="#053742" points="313.5 197.78 317.5 188.78 313.5 192.78 309.5 188.78 313.5 197.78" style="stroke:#053742;stroke-width:1"/><text x="262.5" y="177.245" fill="#000" font-family="sans-serif" font-size="13" lengthAdjust="spacing" textLength="78">«có thể giúp»</text><path id="3. Tạo script ĐKHP nhanh-backto-1. Soạn thời khoá biểu" fill="none" d="M313.5,56.42 C313.5,71.34 313.5,89.42 313.5,103.19" style="stroke:#053742;stroke-width:1;stroke-dasharray:7,7"/><polygon fill="#053742" points="313.5 51.08 309.5 60.08 313.5 56.08 317.5 60.08 313.5 51.08" style="stroke:#053742;stroke-width:1"/><text x="262.5" y="82.745" fill="#000" font-family="sans-serif" font-size="13" lengthAdjust="spacing" textLength="78">«có thể giúp»</text></g></svg>