<svg xmlns="http://www.w3.org/2000/svg" xmlns:xlink="http://www.w3.org/1999/xlink" width="918" height="281" contentScriptType="application/ecmascript" contentStyleType="text/css" preserveAspectRatio="none" style="width:918px;height:281px;background:#fff" version="1.1" viewBox="0 0 918 281" zoomAndPan="magnify"><defs><filter id="fxhl74geptdz6" width="300%" height="300%" x="-1" y="-1"><feGaussianBlur result="blurOut" stdDeviation="2"/><feColorMatrix in="blurOut" result="blurOut2" type="matrix" values="0 0 0 0 0 0 0 0 0 0 0 0 0 0 0 0 0 0 .4 0"/><feOffset dx="4" dy="4" in="blurOut2" result="blurOut3"/><feBlend in="SourceGraphic" in2="blurOut3" mode="normal"/></filter></defs><g><ellipse cx="47.5" cy="106.5" fill="#FFF" filter="url(#fxhl74geptdz6)" rx="8" ry="8" style="stroke:#053742;stroke-width:1.5"/><path fill="none" d="M47.5,114.5 L47.5,141.5 M34.5,122.5 L60.5,122.5 M47.5,141.5 L34.5,156.5 M47.5,141.5 L60.5,156.5" filter="url(#fxhl74geptdz6)" style="stroke:#053742;stroke-width:1.5"/><text x="6" y="176.533" fill="#053742" font-family="sans-serif" font-size="14" lengthAdjust="spacing" textLength="83">Sinh viên UIT</text><ellipse cx="306.27" cy="25.454" fill="#A2DBFA" filter="url(#fxhl74geptdz6)" rx="85.27" ry="19.454" style="stroke:#053742;stroke-width:1.5"/><text x="242.77" y="29.183" fill="#000" font-family="sans-serif" font-size="14" lengthAdjust="spacing" textLength="127">Soạn thời khoá biểu</text><ellipse cx="306.682" cy="98.636" fill="#A2DBFA" filter="url(#fxhl74geptdz6)" rx="78.682" ry="18.136" style="stroke:#053742;stroke-width:1.5"/><text x="249.595" y="102.808" fill="#000" font-family="sans-serif" font-size="14" lengthAdjust="spacing" textLength="111">Vẽ thời khoá biểu</text><ellipse cx="306.313" cy="173.263" fill="#A2DBFA" filter="url(#fxhl74geptdz6)" rx="94.313" ry="21.263" style="stroke:#053742;stroke-width:1.5"/><text x="232.313" y="176.991" fill="#000" font-family="sans-serif" font-size="14" lengthAdjust="spacing" textLength="148">Tạo script ĐKHP nhanh</text><ellipse cx="306.541" cy="249.708" fill="#A2DBFA" filter="url(#fxhl74geptdz6)" rx="86.541" ry="19.708" style="stroke:#053742;stroke-width:1.5"/><text x="241.541" y="253.437" fill="#000" font-family="sans-serif" font-size="14" lengthAdjust="spacing" textLength="130">Xem giao diện ĐKHP</text><ellipse cx="598.689" cy="62.538" fill="#A2DBFA" filter="url(#fxhl74geptdz6)" rx="80.689" ry="18.538" style="stroke:#053742;stroke-width:1.5"/><text x="540.001" y="66.466" fill="#000" font-family="sans-serif" font-size="14" lengthAdjust="spacing" textLength="116">Tạo nguồn dữ liệu</text><path fill="#FFF" d="M740,41 L740,58.5 L679.1,62.5 L740,66.5 L740,83.7031 A0,0 0 0 0 740,83.7031 L909,83.7031 A0,0 0 0 0 909,83.7031 L909,51 L899,41 L740,41 A0,0 0 0 0 740,41" filter="url(#fxhl74geptdz6)" style="stroke:#053742;stroke-width:1"/><path fill="#FFF" d="M899,41 L899,51 L909,51 L899,41" style="stroke:#053742;stroke-width:1"/><text x="746" y="59.495" fill="#000" font-family="sans-serif" font-size="13" lengthAdjust="spacing" textLength="98">- Tải lên từ excel</text><text x="746" y="75.847" fill="#000" font-family="sans-serif" font-size="13" lengthAdjust="spacing" textLength="148">- Crawl từ dkhp.uit.edu.vn</text><path id="user-to-Soạn thời khoá biểu" fill="none" d="M89.22,112.62 C98.81,106.98 109.12,101.28 119,96.5 C162.43,75.49 213.79,56.33 251.61,43.22" style="stroke:#053742;stroke-width:1"/><polygon fill="#053742" points="256.62 41.5 246.808 40.649 251.893 43.128 249.413 48.213 256.62 41.5" style="stroke:#053742;stroke-width:1"/><path id="user-to-Vẽ thời khoá biểu" fill="none" d="M89,128.61 C98.79,126.42 109.24,124.23 119,122.5 C155.3,116.06 195.88,110.63 229.88,106.57" style="stroke:#053742;stroke-width:1"/><polygon fill="#053742" points="234.85 105.99 225.443 103.074 229.885 106.577 226.381 111.018 234.85 105.99" style="stroke:#053742;stroke-width:1"/><path id="user-to-Tạo script ĐKHP nhanh" fill="none" d="M89.22,144.05 C124.25,148.82 175.94,155.86 220,161.86" style="stroke:#053742;stroke-width:1"/><polygon fill="#053742" points="225.06 162.55 216.695 157.351 220.107 161.863 215.596 165.275 225.06 162.55" style="stroke:#053742;stroke-width:1"/><path id="user-to-Xem giao diện ĐKHP" fill="none" d="M89.25,157.6 C122.18,172.88 169.83,194.63 212,212.5 C226.44,218.62 242.26,225 256.72,230.71" style="stroke:#053742;stroke-width:1"/><polygon fill="#053742" points="261.56 232.62 254.652 225.6 256.908 230.788 251.72 233.044 261.56 232.62" style="stroke:#053742;stroke-width:1"/><path id="Soạn thời khoá biểu-to-Tạo nguồn dữ liệu" fill="none" d="M381.43,34.93 C424.73,40.46 479.27,47.42 522.72,52.96" style="stroke:#053742;stroke-width:1;stroke-dasharray:7,7"/><polygon fill="#053742" points="527.7 53.59 519.275 48.49 522.74 52.961 518.268 56.426 527.7 53.59" style="stroke:#053742;stroke-width:1"/><text x="432" y="38.995" fill="#000" font-family="sans-serif" font-size="13" lengthAdjust="spacing" textLength="55">«include»</text><path id="Vẽ thời khoá biểu-to-Tạo nguồn dữ liệu" fill="none" d="M385.13,98.56 C417.13,97.67 454.49,95.47 488,90.5 C506.54,87.75 526.49,83.15 544.21,78.47" style="stroke:#053742;stroke-width:1;stroke-dasharray:7,7"/><polygon fill="#053742" points="549.15 77.15 539.424 75.6 544.318 78.436 541.482 83.331 549.15 77.15" style="stroke:#053742;stroke-width:1"/><text x="432" y="86.995" fill="#000" font-family="sans-serif" font-size="13" lengthAdjust="spacing" textLength="55">«include»</text></g></svg>