<svg xmlns="http://www.w3.org/2000/svg" xmlns:xlink="http://www.w3.org/1999/xlink" width="982" height="671" contentScriptType="application/ecmascript" contentStyleType="text/css" preserveAspectRatio="none" style="width:982px;height:671px;background:#fff" version="1.1" viewBox="0 0 982 671" zoomAndPan="magnify"><defs><filter id="fxhl74geptdz6" width="300%" height="300%" x="-1" y="-1"><feGaussianBlur result="blurOut" stdDeviation="2"/><feColorMatrix in="blurOut" result="blurOut2" type="matrix" values="0 0 0 0 0 0 0 0 0 0 0 0 0 0 0 0 0 0 .4 0"/><feOffset dx="4" dy="4" in="blurOut2" result="blurOut3"/><feBlend in="SourceGraphic" in2="blurOut3" mode="normal"/></filter></defs><g><rect width="381.5" height="136" x="7" y="523" fill="#FFF" filter="url(#fxhl74geptdz6)" style="stroke:#053742;stroke-width:1.5"/><text x="118.75" y="539.533" fill="#000" font-family="sans-serif" font-size="14" font-weight="bold" lengthAdjust="spacing" textLength="158">4. Xem giao diện ĐKHP</text><rect width="963" height="136" x="7" y="363" fill="#FFF" filter="url(#fxhl74geptdz6)" style="stroke:#053742;stroke-width:1.5"/><text x="400.5" y="379.533" fill="#000" font-family="sans-serif" font-size="14" font-weight="bold" lengthAdjust="spacing" textLength="176">3. Tạo script ĐKHP nhanh</text><rect width="963" height="172" x="7" y="167" fill="#FFF" filter="url(#fxhl74geptdz6)" style="stroke:#053742;stroke-width:1.5"/><text x="419" y="183.533" fill="#000" font-family="sans-serif" font-size="14" font-weight="bold" lengthAdjust="spacing" textLength="139">2. Vẽ thời khoá biểu</text><rect width="959" height="136" x="7" y="7" fill="#FFF" filter="url(#fxhl74geptdz6)" style="stroke:#053742;stroke-width:1.5"/><text x="408.5" y="23.533" fill="#000" font-family="sans-serif" font-size="14" font-weight="bold" lengthAdjust="spacing" textLength="156">1. Soạn thời khoá biểu</text><ellipse cx="64.5" cy="569" fill="#FFF" filter="url(#fxhl74geptdz6)" rx="8" ry="8" style="stroke:#053742;stroke-width:1.5"/><path fill="none" d="M64.5,577 L64.5,604 M51.5,585 L77.5,585 M64.5,604 L51.5,619 M64.5,604 L77.5,619" filter="url(#fxhl74geptdz6)" style="stroke:#053742;stroke-width:1.5"/><text x="23" y="639.033" fill="#053742" font-family="sans-serif" font-size="14" lengthAdjust="spacing" textLength="83">Sinh viên UIT</text><ellipse cx="274.224" cy="601.145" fill="#A2DBFA" filter="url(#fxhl74geptdz6)" rx="98.724" ry="22.145" style="stroke:#053742;stroke-width:1.5"/><text x="195.224" y="604.873" fill="#000" font-family="sans-serif" font-size="14" lengthAdjust="spacing" textLength="158">4. Xem giao diện ĐKHP</text><ellipse cx="64.5" cy="409" fill="#FFF" filter="url(#fxhl74geptdz6)" rx="8" ry="8" style="stroke:#053742;stroke-width:1.5"/><path fill="none" d="M64.5,417 L64.5,444 M51.5,425 L77.5,425 M64.5,444 L51.5,459 M64.5,444 L77.5,459" filter="url(#fxhl74geptdz6)" style="stroke:#053742;stroke-width:1.5"/><text x="23" y="479.033" fill="#053742" font-family="sans-serif" font-size="14" lengthAdjust="spacing" textLength="83">Sinh viên UIT</text><ellipse cx="273.798" cy="440.76" fill="#A2DBFA" filter="url(#fxhl74geptdz6)" rx="106.798" ry="23.76" style="stroke:#053742;stroke-width:1.5"/><text x="185.798" y="444.488" fill="#000" font-family="sans-serif" font-size="14" lengthAdjust="spacing" textLength="176">3. Tạo script ĐKHP nhanh</text><ellipse cx="618.394" cy="440.879" fill="#A2DBFA" filter="url(#fxhl74geptdz6)" rx="97.394" ry="21.879" style="stroke:#053742;stroke-width:1.5"/><text x="540.894" y="444.607" fill="#000" font-family="sans-serif" font-size="14" lengthAdjust="spacing" textLength="155">1. Soạn thời khoá biểu</text><path fill="#FFF" d="M777,428 L777,437 L716.33,441 L777,445 L777,454.3516 A0,0 0 0 0 777,454.3516 L954,454.3516 A0,0 0 0 0 954,454.3516 L954,438 L944,428 L777,428 A0,0 0 0 0 777,428" filter="url(#fxhl74geptdz6)" style="stroke:#053742;stroke-width:1"/><path fill="#FFF" d="M944,428 L944,438 L954,438 L944,428" style="stroke:#053742;stroke-width:1"/><text x="783" y="446.495" fill="#000" font-family="sans-serif" font-size="13" lengthAdjust="spacing" textLength="156">Có thể tự soạn bằng Excel</text><ellipse cx="64.5" cy="231" fill="#FFF" filter="url(#fxhl74geptdz6)" rx="8" ry="8" style="stroke:#053742;stroke-width:1.5"/><path fill="none" d="M64.5,239 L64.5,266 M51.5,247 L77.5,247 M64.5,266 L51.5,281 M64.5,266 L77.5,281" filter="url(#fxhl74geptdz6)" style="stroke:#053742;stroke-width:1.5"/><text x="23" y="301.033" fill="#053742" font-family="sans-serif" font-size="14" lengthAdjust="spacing" textLength="83">Sinh viên UIT</text><ellipse cx="274.176" cy="263.135" fill="#A2DBFA" filter="url(#fxhl74geptdz6)" rx="88.676" ry="20.135" style="stroke:#053742;stroke-width:1.5"/><text x="206.676" y="266.864" fill="#000" font-family="sans-serif" font-size="14" lengthAdjust="spacing" textLength="135">2. Vẽ thời khoá biểu</text><ellipse cx="618.63" cy="301.026" fill="#A2DBFA" filter="url(#fxhl74geptdz6)" rx="95.63" ry="21.526" style="stroke:#053742;stroke-width:1.5"/><text x="543.13" y="304.755" fill="#000" font-family="sans-serif" font-size="14" lengthAdjust="spacing" textLength="151">1. Soạn thời khoá biểu</text><ellipse cx="618.33" cy="224.066" fill="#A2DBFA" filter="url(#fxhl74geptdz6)" rx="90.83" ry="20.566" style="stroke:#053742;stroke-width:1.5"/><text x="548.33" y="227.794" fill="#000" font-family="sans-serif" font-size="14" lengthAdjust="spacing" textLength="140">0. Tạo nguồn dữ liệu</text><path fill="#FFF" d="M781,203.5 L781,220.66 L709.69,224.37 L781,228.66 L781,246.2031 A0,0 0 0 0 781,246.2031 L950,246.2031 A0,0 0 0 0 950,246.2031 L950,213.5 L940,203.5 L781,203.5 A0,0 0 0 0 781,203.5" filter="url(#fxhl74geptdz6)" style="stroke:#053742;stroke-width:1"/><path fill="#FFF" d="M940,203.5 L940,213.5 L950,213.5 L940,203.5" style="stroke:#053742;stroke-width:1"/><text x="787" y="221.995" fill="#000" font-family="sans-serif" font-size="13" lengthAdjust="spacing" textLength="98">- Tải lên từ excel</text><text x="787" y="238.347" fill="#000" font-family="sans-serif" font-size="13" lengthAdjust="spacing" textLength="148">- Crawl từ dkhp.uit.edu.vn</text><path fill="#FFF" d="M777,288 L777,297 L714.22,301 L777,305 L777,314.3516 A0,0 0 0 0 777,314.3516 L954,314.3516 A0,0 0 0 0 954,314.3516 L954,298 L944,288 L777,288 A0,0 0 0 0 777,288" filter="url(#fxhl74geptdz6)" style="stroke:#053742;stroke-width:1"/><path fill="#FFF" d="M944,288 L944,298 L954,298 L944,288" style="stroke:#053742;stroke-width:1"/><text x="783" y="306.495" fill="#000" font-family="sans-serif" font-size="13" lengthAdjust="spacing" textLength="156">Có thể tự soạn bằng Excel</text><ellipse cx="64.5" cy="53" fill="#FFF" filter="url(#fxhl74geptdz6)" rx="8" ry="8" style="stroke:#053742;stroke-width:1.5"/><path fill="none" d="M64.5,61 L64.5,88 M51.5,69 L77.5,69 M64.5,88 L51.5,103 M64.5,88 L77.5,103" filter="url(#fxhl74geptdz6)" style="stroke:#053742;stroke-width:1.5"/><text x="23" y="123.033" fill="#053742" font-family="sans-serif" font-size="14" lengthAdjust="spacing" textLength="83">Sinh viên UIT</text><ellipse cx="273.875" cy="85.175" fill="#A2DBFA" filter="url(#fxhl74geptdz6)" rx="93.875" ry="21.175" style="stroke:#053742;stroke-width:1.5"/><text x="200.375" y="88.904" fill="#000" font-family="sans-serif" font-size="14" lengthAdjust="spacing" textLength="147">1. Soạn thời khoá biểu</text><ellipse cx="618.605" cy="85.221" fill="#A2DBFA" filter="url(#fxhl74geptdz6)" rx="89.105" ry="20.221" style="stroke:#053742;stroke-width:1.5"/><text x="550.605" y="88.95" fill="#000" font-family="sans-serif" font-size="14" lengthAdjust="spacing" textLength="136">0. Tạo nguồn dữ liệu</text><path fill="#FFF" d="M781,63.5 L781,81 L707.6,85 L781,89 L781,106.2031 A0,0 0 0 0 781,106.2031 L950,106.2031 A0,0 0 0 0 950,106.2031 L950,73.5 L940,63.5 L781,63.5 A0,0 0 0 0 781,63.5" filter="url(#fxhl74geptdz6)" style="stroke:#053742;stroke-width:1"/><path fill="#FFF" d="M940,63.5 L940,73.5 L950,73.5 L940,63.5" style="stroke:#053742;stroke-width:1"/><text x="787" y="81.995" fill="#000" font-family="sans-serif" font-size="13" lengthAdjust="spacing" textLength="98">- Tải lên từ excel</text><text x="787" y="98.347" fill="#000" font-family="sans-serif" font-size="13" lengthAdjust="spacing" textLength="148">- Crawl từ dkhp.uit.edu.vn</text><path id="user4-to-4. Xem giao diện ĐKHP" fill="none" d="M106,601 C124.53,601 147.42,601 170.24,601" style="stroke:#053742;stroke-width:1"/><polygon fill="#053742" points="175.41 601 166.41 597 170.41 601 166.41 605 175.41 601" style="stroke:#053742;stroke-width:1"/><path id="user3-to-3. Tạo script ĐKHP nhanh" fill="none" d="M106,441 C122.2,441 141.73,441 161.63,441" style="stroke:#053742;stroke-width:1"/><polygon fill="#053742" points="166.7 441 157.7 437 161.7 441 157.7 445 166.7 441" style="stroke:#053742;stroke-width:1"/><path id="3. Tạo script ĐKHP nhanh-backto-1. Soạn thời khoá biểu" fill="none" d="M386.03,441 C429.54,441 479,441 521,441" style="stroke:#053742;stroke-width:1;stroke-dasharray:7,7"/><polygon fill="#053742" points="381.02 441 390.02 445 386.02 441 390.02 437 381.02 441" style="stroke:#053742;stroke-width:1"/><text x="412" y="437.495" fill="#000" font-family="sans-serif" font-size="13" lengthAdjust="spacing" textLength="78">«có thể giúp»</text><path id="user2-to-2. Vẽ thời khoá biểu" fill="none" d="M106,263 C127.23,263 154.17,263 180.19,263" style="stroke:#053742;stroke-width:1"/><polygon fill="#053742" points="185.38 263 176.38 259 180.38 263 176.38 267 185.38 263" style="stroke:#053742;stroke-width:1"/><path id="2. Vẽ thời khoá biểu-backto-1. Soạn thời khoá biểu" fill="none" d="M344.51,277.42 C365.77,281.39 389.27,285.33 411,288 C447.9,292.54 488.72,295.53 524.25,297.49" style="stroke:#053742;stroke-width:1;stroke-dasharray:7,7"/><polygon fill="#053742" points="339.44 276.47 347.541 282.072 344.353 277.398 349.026 274.211 339.44 276.47" style="stroke:#053742;stroke-width:1"/><text x="412" y="284.495" fill="#000" font-family="sans-serif" font-size="13" lengthAdjust="spacing" textLength="78">«có thể giúp»</text><path id="2. Vẽ thời khoá biểu-to-0. Tạo nguồn dữ liệu" fill="none" d="M353.58,254.05 C406.76,248 477.02,240 531.67,233.77" style="stroke:#053742;stroke-width:1;stroke-dasharray:7,7"/><polygon fill="#053742" points="536.91 233.18 527.52 230.207 531.941 233.737 528.412 238.157 536.91 233.18" style="stroke:#053742;stroke-width:1"/><text x="433.5" y="235.495" fill="#000" font-family="sans-serif" font-size="13" lengthAdjust="spacing" textLength="35">«cần»</text><path id="user1-to-1. Soạn thời khoá biểu" fill="none" d="M106,85 C125.71,85 150.34,85 174.59,85" style="stroke:#053742;stroke-width:1"/><polygon fill="#053742" points="179.75 85 170.75 81 174.75 85 170.75 89 179.75 85" style="stroke:#053742;stroke-width:1"/><path id="1. Soạn thời khoá biểu-to-0. Tạo nguồn dữ liệu" fill="none" d="M368.14,85 C416.59,85 475.65,85 524.14,85" style="stroke:#053742;stroke-width:1;stroke-dasharray:7,7"/><polygon fill="#053742" points="529.39 85 520.39 81 524.39 85 520.39 89 529.39 85" style="stroke:#053742;stroke-width:1"/><text x="433.5" y="81.495" fill="#000" font-family="sans-serif" font-size="13" lengthAdjust="spacing" textLength="35">«cần»</text></g></svg>