<svg xmlns="http://www.w3.org/2000/svg" xmlns:xlink="http://www.w3.org/1999/xlink" width="1156" height="307" contentScriptType="application/ecmascript" contentStyleType="text/css" preserveAspectRatio="none" style="width:1156px;height:307px;background:#fff" version="1.1" viewBox="0 0 1156 307" zoomAndPan="magnify"><defs><filter id="fzp6rucrakyhe" width="300%" height="300%" x="-1" y="-1"><feGaussianBlur result="blurOut" stdDeviation="2"/><feColorMatrix in="blurOut" result="blurOut2" type="matrix" values="0 0 0 0 0 0 0 0 0 0 0 0 0 0 0 0 0 0 .4 0"/><feOffset dx="4" dy="4" in="blurOut2" result="blurOut3"/><feBlend in="SourceGraphic" in2="blurOut3" mode="normal"/></filter></defs><g><rect width="116" height="37.609" x="216.5" y="121.5" fill="#FFF" filter="url(#fzp6rucrakyhe)" style="stroke:#053742;stroke-width:1;stroke-dasharray:7,7"/><text x="226.5" y="146.033" fill="#000" font-family="sans-serif" font-size="14" lengthAdjust="spacing" textLength="96">Dữ liệu lớp học</text><rect width="154" height="37.609" x="538.5" y="121.5" fill="#FFF" filter="url(#fzp6rucrakyhe)" style="stroke:#053742;stroke-width:1;stroke-dasharray:7,7"/><text x="548.5" y="146.033" fill="#000" font-family="sans-serif" font-size="14" lengthAdjust="spacing" textLength="134">Danh sách lớp sẽ ĐK</text><rect width="141" height="37.609" x="966" y="121.5" fill="#FFFFE0" filter="url(#fzp6rucrakyhe)" style="stroke:#053742;stroke-width:1.5"/><text x="976" y="146.033" fill="#000" font-family="sans-serif" font-size="14" lengthAdjust="spacing" textLength="121">Script ĐKHP nhanh</text><rect width="141" height="72.828" x="736" y="223" fill="#FFFFE0" filter="url(#fzp6rucrakyhe)" style="stroke:#053742;stroke-width:1.5"/><text x="746" y="247.533" fill="#000" font-family="sans-serif" font-size="14" lengthAdjust="spacing" textLength="92">Giao diện TKB</text><text x="746" y="265.143" fill="#000" font-family="sans-serif" font-size="14" lengthAdjust="spacing" textLength="121">• Copy to clipboard</text><text x="746" y="282.752" fill="#000" font-family="sans-serif" font-size="14" lengthAdjust="spacing" textLength="79">• Tải về máy</text><rect width="153" height="37.609" x="991" y="13" fill="#FFFFE0" filter="url(#fzp6rucrakyhe)" style="stroke:#053742;stroke-width:1.5"/><text x="1001" y="37.533" fill="#000" font-family="sans-serif" font-size="14" lengthAdjust="spacing" textLength="133">Giao diện ĐKHP mẫu</text><ellipse cx="93.392" cy="140.379" fill="#A2DBFA" filter="url(#fzp6rucrakyhe)" rx="87.392" ry="19.878" style="stroke:#053742;stroke-width:1.5"/><text x="27.392" y="144.107" fill="#000" font-family="sans-serif" font-size="14" lengthAdjust="spacing" textLength="132">0. Tạo nguồn dữ liệu</text><ellipse cx="435.417" cy="140.383" fill="#A2DBFA" filter="url(#fzp6rucrakyhe)" rx="67.417" ry="15.883" style="stroke:#053742;stroke-width:1.5"/><text x="392.417" y="144.9" fill="#000" font-family="sans-serif" font-size="14" lengthAdjust="spacing" textLength="80">1. Soạn TKB</text><ellipse cx="615.278" cy="31.956" fill="#A2DBFA" filter="url(#fzp6rucrakyhe)" rx="117.778" ry="25.956" style="stroke:#053742;stroke-width:1.5"/><text x="515.278" y="35.684" fill="#000" font-family="sans-serif" font-size="14" lengthAdjust="spacing" textLength="200">1&apos;. Tự soạn TKB bằng MS Excel</text><ellipse cx="615.27" cy="259.454" fill="#A2DBFA" filter="url(#fzp6rucrakyhe)" rx="85.27" ry="19.454" style="stroke:#053742;stroke-width:1.5"/><text x="551.77" y="263.183" fill="#000" font-family="sans-serif" font-size="14" lengthAdjust="spacing" textLength="127">2. Vẽ thời khoá biểu</text><ellipse cx="829.398" cy="140.679" fill="#A2DBFA" filter="url(#fzp6rucrakyhe)" rx="101.397" ry="22.68" style="stroke:#053742;stroke-width:1.5"/><text x="747.398" y="144.408" fill="#000" font-family="sans-serif" font-size="14" lengthAdjust="spacing" textLength="164">3. Tạo script ĐKHP nhanh</text><ellipse cx="862.438" cy="32.088" fill="#A2DBFA" filter="url(#fzp6rucrakyhe)" rx="93.438" ry="21.088" style="stroke:#053742;stroke-width:1.5"/><text x="789.438" y="35.816" fill="#000" font-family="sans-serif" font-size="14" lengthAdjust="spacing" textLength="146">4. Xem giao diện ĐKHP</text><path id="TaoNguonDuLieu-to-DuLieuLopHoc" fill="none" d="M181.17,140.5 C191.11,140.5 201.04,140.5 210.97,140.5" style="stroke:#053742;stroke-width:1;stroke-dasharray:7,7"/><polygon fill="#053742" points="216.17 140.5 207.17 136.5 211.17 140.5 207.17 144.5 216.17 140.5" style="stroke:#053742;stroke-width:1"/><path id="DuLieuLopHoc-to-SoanTKB" fill="none" d="M332.67,140.5 C342.59,140.5 352.51,140.5 362.43,140.5" style="stroke:#053742;stroke-width:1;stroke-dasharray:7,7"/><polygon fill="#053742" points="367.62 140.5 358.62 136.5 362.62 140.5 358.62 144.5 367.62 140.5" style="stroke:#053742;stroke-width:1"/><path id="SoanTKB-to-DanhSachLopSeDK" fill="none" d="M503,140.5 C512.98,140.5 522.96,140.5 532.94,140.5" style="stroke:#053742;stroke-width:1;stroke-dasharray:7,7"/><polygon fill="#053742" points="538.16 140.5 529.16 136.5 533.16 140.5 529.16 144.5 538.16 140.5" style="stroke:#053742;stroke-width:1"/><path id="TuSoanTKB-to-DanhSachLopSeDK" fill="none" d="M615.5,58.24 C615.5,75.85 615.5,99.19 615.5,116.33" style="stroke:#053742;stroke-width:1;stroke-dasharray:7,7"/><polygon fill="#053742" points="615.5 121.44 619.5 112.44 615.5 116.44 611.5 112.44 615.5 121.44" style="stroke:#053742;stroke-width:1"/><path id="DanhSachLopSeDK-to-TaoScript" fill="none" d="M692.82,140.5 C702.75,140.5 712.68,140.5 722.6,140.5" style="stroke:#053742;stroke-width:1;stroke-dasharray:7,7"/><polygon fill="#053742" points="727.79 140.5 718.79 136.5 722.79 140.5 718.79 144.5 727.79 140.5" style="stroke:#053742;stroke-width:1"/><path id="TaoScript-to-ScriptDKHPNhanh" fill="none" d="M931.38,140.5 C941.17,140.5 950.96,140.5 960.75,140.5" style="stroke:#053742;stroke-width:1;stroke-dasharray:7,7"/><polygon fill="#053742" points="965.87 140.5 956.87 136.5 960.87 140.5 956.87 144.5 965.87 140.5" style="stroke:#053742;stroke-width:1"/><path id="DuLieuLopHoc-to-VeTKB" fill="none" d="M327.03,159.52 C391.85,181.77 501.29,219.31 565.11,241.21" style="stroke:#053742;stroke-width:1;stroke-dasharray:7,7"/><polygon fill="#053742" points="570 242.89 562.775 236.197 565.268 241.275 560.19 243.768 570 242.89" style="stroke:#053742;stroke-width:1"/><path id="DanhSachLopSeDK-to-VeTKB" fill="none" d="M615.5,159.52 C615.5,179.7 615.5,212.48 615.5,234.74" style="stroke:#053742;stroke-width:1;stroke-dasharray:7,7"/><polygon fill="#053742" points="615.5 239.87 619.5 230.87 615.5 234.87 611.5 230.87 615.5 239.87" style="stroke:#053742;stroke-width:1"/><path id="VeTKB-to-ThoiKhoaBieu" fill="none" d="M701.3,259.5 C711.1,259.5 720.9,259.5 730.7,259.5" style="stroke:#053742;stroke-width:1;stroke-dasharray:7,7"/><polygon fill="#053742" points="735.82 259.5 726.82 255.5 730.82 259.5 726.82 263.5 735.82 259.5" style="stroke:#053742;stroke-width:1"/><path id="XemDKHP-to-GiaoDienDKHP" fill="none" d="M956.19,32 C966.06,32 975.94,32 985.81,32" style="stroke:#053742;stroke-width:1"/><polygon fill="#053742" points="990.98 32 981.98 28 985.98 32 981.98 36 990.98 32" style="stroke:#053742;stroke-width:1"/></g></svg>