<svg xmlns="http://www.w3.org/2000/svg" xmlns:xlink="http://www.w3.org/1999/xlink" width="627" height="302" contentScriptType="application/ecmascript" contentStyleType="text/css" preserveAspectRatio="none" style="width:627px;height:302px;background:#fff" version="1.1" viewBox="0 0 627 302" zoomAndPan="magnify"><defs><filter id="fzp6rucrakyhe" width="300%" height="300%" x="-1" y="-1"><feGaussianBlur result="blurOut" stdDeviation="2"/><feColorMatrix in="blurOut" result="blurOut2" type="matrix" values="0 0 0 0 0 0 0 0 0 0 0 0 0 0 0 0 0 0 .4 0"/><feOffset dx="4" dy="4" in="blurOut2" result="blurOut3"/><feBlend in="SourceGraphic" in2="blurOut3" mode="normal"/></filter></defs><g><rect width="116" height="37.609" x="296" y="7" fill="#FFF" filter="url(#fzp6rucrakyhe)" style="stroke:#053742;stroke-width:1.5"/><text x="306" y="31.533" fill="#000" font-family="sans-serif" font-size="14" lengthAdjust="spacing" textLength="96">Dữ liệu lớp học</text><rect width="154" height="37.609" x="277" y="246" fill="#FFF" filter="url(#fzp6rucrakyhe)" style="stroke:#053742;stroke-width:1.5"/><text x="287" y="270.533" fill="#000" font-family="sans-serif" font-size="14" lengthAdjust="spacing" textLength="134">Danh sách lớp sẽ ĐK</text><rect width="141" height="72.828" x="474.5" y="106" fill="#FFFFE0" filter="url(#fzp6rucrakyhe)" style="stroke:#053742;stroke-width:1.5"/><text x="484.5" y="130.533" fill="#000" font-family="sans-serif" font-size="14" lengthAdjust="spacing" textLength="92">Giao diện TKB</text><text x="484.5" y="148.143" fill="#000" font-family="sans-serif" font-size="14" lengthAdjust="spacing" textLength="121">• Copy to clipboard</text><text x="484.5" y="165.752" fill="#000" font-family="sans-serif" font-size="14" lengthAdjust="spacing" textLength="79">• Tải về máy</text><ellipse cx="172.892" cy="25.878" fill="#A2DBFA" filter="url(#fzp6rucrakyhe)" rx="87.392" ry="19.878" style="stroke:#053742;stroke-width:1;stroke-dasharray:7,7"/><text x="106.892" y="29.607" fill="#000" font-family="sans-serif" font-size="14" lengthAdjust="spacing" textLength="132">0. Tạo nguồn dữ liệu</text><ellipse cx="165.917" cy="142.383" fill="#A2DBFA" filter="url(#fzp6rucrakyhe)" rx="67.417" ry="15.883" style="stroke:#053742;stroke-width:1;stroke-dasharray:7,7"/><text x="122.917" y="146.9" fill="#000" font-family="sans-serif" font-size="14" lengthAdjust="spacing" textLength="80">1. Soạn TKB</text><ellipse cx="123.778" cy="264.956" fill="#A2DBFA" filter="url(#fzp6rucrakyhe)" rx="117.778" ry="25.956" style="stroke:#053742;stroke-width:1;stroke-dasharray:7,7"/><text x="23.778" y="268.684" fill="#000" font-family="sans-serif" font-size="14" lengthAdjust="spacing" textLength="200">1&apos;. Tự soạn TKB bằng MS Excel</text><ellipse cx="353.77" cy="142.454" fill="#A2DBFA" filter="url(#fzp6rucrakyhe)" rx="85.27" ry="19.454" style="stroke:#053742;stroke-width:1.5"/><text x="290.27" y="146.183" fill="#000" font-family="sans-serif" font-size="14" lengthAdjust="spacing" textLength="127">2. Vẽ thời khoá biểu</text><path id="TaoNguonDuLieu-to-DuLieuLopHoc" fill="none" d="M260.67,26 C270.61,26 280.54,26 290.47,26" style="stroke:#053742;stroke-width:1;stroke-dasharray:7,7"/><polygon fill="#053742" points="295.67 26 286.67 22 290.67 26 286.67 30 295.67 26" style="stroke:#053742;stroke-width:1"/><path id="DuLieuLopHoc-to-SoanTKB" fill="none" d="M324.21,45.14 C288.34,66.99 228.58,103.39 193.68,124.64" style="stroke:#053742;stroke-width:1;stroke-dasharray:7,7"/><polygon fill="#053742" points="189.13 127.41 198.898 126.147 193.401 124.81 194.738 119.314 189.13 127.41" style="stroke:#053742;stroke-width:1"/><path id="DuLieuLopHoc-to-VeTKB" fill="none" d="M354,45.14 C354,64.68 354,95.84 354,117.42" style="stroke:#053742;stroke-width:1"/><polygon fill="#053742" points="354 122.68 358 113.68 354 117.68 350 113.68 354 122.68" style="stroke:#053742;stroke-width:1"/><path id="VeTKB-to-ThoiKhoaBieu" fill="none" d="M439.8,142.5 C449.6,142.5 459.4,142.5 469.2,142.5" style="stroke:#053742;stroke-width:1"/><polygon fill="#053742" points="474.32 142.5 465.32 138.5 469.32 142.5 465.32 146.5 474.32 142.5" style="stroke:#053742;stroke-width:1"/><path id="TuSoanTKB-to-DanhSachLopSeDK" fill="none" d="M242.14,265 C251.94,265 261.74,265 271.54,265" style="stroke:#053742;stroke-width:1;stroke-dasharray:7,7"/><polygon fill="#053742" points="276.66 265 267.66 261 271.66 265 267.66 269 276.66 265" style="stroke:#053742;stroke-width:1"/><path id="SoanTKB-to-DanhSachLopSeDK" fill="none" d="M188.3,157.8 C221.2,178.88 282.95,218.46 321.07,242.89" style="stroke:#053742;stroke-width:1;stroke-dasharray:7,7"/><polygon fill="#053742" points="325.6 245.8 320.173 237.582 321.388 243.106 315.863 244.321 325.6 245.8" style="stroke:#053742;stroke-width:1"/><path id="VeTKB-backto-DanhSachLopSeDK" fill="none" d="M354,167.07 C354,190.07 354,224.57 354,245.61" style="stroke:#053742;stroke-width:1"/><polygon fill="#053742" points="354 162.06 350 171.06 354 167.06 358 171.06 354 162.06" style="stroke:#053742;stroke-width:1"/></g></svg>